<svg width="32" height="32" viewBox="0 0 32 32" fill="none" xmlns="http://www.w3.org/2000/svg">
<path d="M27.9999 21.3333H22.6666C21.9302 21.3333 21.3333 21.9303 21.3333 22.6666V28C21.3333 28.7364 21.9302 29.3333 22.6666 29.3333H27.9999C28.7363 29.3333 29.3333 28.7364 29.3333 28V22.6666C29.3333 21.9303 28.7363 21.3333 27.9999 21.3333Z" stroke="#009BDE" stroke-width="2" stroke-linecap="round" stroke-linejoin="round"/>
<path d="M9.33342 21.3333H4.00008C3.2637 21.3333 2.66675 21.9303 2.66675 22.6666V28C2.66675 28.7364 3.2637 29.3333 4.00008 29.3333H9.33342C10.0698 29.3333 10.6667 28.7364 10.6667 28V22.6666C10.6667 21.9303 10.0698 21.3333 9.33342 21.3333Z" stroke="#009BDE" stroke-width="2" stroke-linecap="round" stroke-linejoin="round"/>
<path d="M18.6667 2.66669H13.3333C12.597 2.66669 12 3.26364 12 4.00002V9.33335C12 10.0697 12.597 10.6667 13.3333 10.6667H18.6667C19.403 10.6667 20 10.0697 20 9.33335V4.00002C20 3.26364 19.403 2.66669 18.6667 2.66669Z" stroke="#009BDE" stroke-width="2" stroke-linecap="round" stroke-linejoin="round"/>
<path d="M6.66675 21.3333V17.3333C6.66675 16.9797 6.80722 16.6406 7.05727 16.3905C7.30732 16.1405 7.64646 16 8.00008 16H24.0001C24.3537 16 24.6928 16.1405 24.9429 16.3905C25.1929 16.6406 25.3334 16.9797 25.3334 17.3333V21.3333" stroke="#009BDE" stroke-width="2" stroke-linecap="round" stroke-linejoin="round"/>
<path d="M16 16V10.6667" stroke="#009BDE" stroke-width="2" stroke-linecap="round" stroke-linejoin="round"/>
</svg>
