<svg width="33" height="32" viewBox="0 0 33 32" fill="none" xmlns="http://www.w3.org/2000/svg">
<path d="M27.1667 17.3333C27.1667 23.9999 22.5 27.3333 16.9534 29.2666C16.6629 29.365 16.3474 29.3603 16.06 29.2533C10.5 27.3333 5.83337 23.9999 5.83337 17.3333V7.99995C5.83337 7.64633 5.97385 7.30719 6.2239 7.05714C6.47395 6.80709 6.81309 6.66662 7.16671 6.66662C9.83337 6.66662 13.1667 5.06662 15.4867 3.03995C15.7692 2.79861 16.1285 2.66602 16.5 2.66602C16.8716 2.66602 17.2309 2.79861 17.5134 3.03995C19.8467 5.07995 23.1667 6.66662 25.8334 6.66662C26.187 6.66662 26.5261 6.80709 26.7762 7.05714C27.0262 7.30719 27.1667 7.64633 27.1667 7.99995V17.3333Z" stroke="#F89938" stroke-width="2" stroke-linecap="round" stroke-linejoin="round"/>
<path d="M12.5 16L15.1667 18.6667L20.5 13.3334" stroke="#F89938" stroke-width="2" stroke-linecap="round" stroke-linejoin="round"/>
</svg>
