<svg width="32" height="32" viewBox="0 0 32 32" fill="none" xmlns="http://www.w3.org/2000/svg">
<path d="M28.0001 22.6667H20.0001C19.2637 22.6667 18.6667 23.2636 18.6667 24V28C18.6667 28.7364 19.2637 29.3334 20.0001 29.3334H28.0001C28.7365 29.3334 29.3334 28.7364 29.3334 28V24C29.3334 23.2636 28.7365 22.6667 28.0001 22.6667Z" stroke="#009BDE" stroke-width="2" stroke-linecap="round" stroke-linejoin="round"/>
<path d="M13.3334 26.6667H5.33341C4.62617 26.6667 3.94789 26.3857 3.4478 25.8856C2.9477 25.3855 2.66675 24.7073 2.66675 24V6.66667C2.66675 5.95943 2.9477 5.28115 3.4478 4.78105C3.94789 4.28096 4.62617 4.00001 5.33341 4.00001H10.5334C10.9794 3.99563 11.4194 4.10319 11.813 4.31283C12.2067 4.52248 12.5415 4.82751 12.7867 5.20001L13.8667 6.80001C14.1096 7.16871 14.4401 7.47137 14.8287 7.68081C15.2174 7.89025 15.6519 7.99993 16.0934 8.00001H26.6667C27.374 8.00001 28.0523 8.28096 28.5524 8.78105C29.0525 9.28115 29.3334 9.95943 29.3334 10.6667V14" stroke="#009BDE" stroke-width="2" stroke-linecap="round" stroke-linejoin="round"/>
<path d="M26.6666 22.6666V20C26.6666 19.2927 26.3856 18.6145 25.8855 18.1144C25.3854 17.6143 24.7072 17.3333 23.9999 17.3333C23.2927 17.3333 22.6144 17.6143 22.1143 18.1144C21.6142 18.6145 21.3333 19.2927 21.3333 20V22.6666" stroke="#009BDE" stroke-width="2" stroke-linecap="round" stroke-linejoin="round"/>
</svg>
