<svg width="32" height="32" viewBox="0 0 32 32" fill="none" xmlns="http://www.w3.org/2000/svg">
<path d="M26.6667 4H12.0001C11.2637 4 10.6667 4.59695 10.6667 5.33333V12C10.6667 12.7364 11.2637 13.3333 12.0001 13.3333H26.6667C27.4031 13.3333 28.0001 12.7364 28.0001 12V5.33333C28.0001 4.59695 27.4031 4 26.6667 4Z" stroke="#009BDE" stroke-width="2" stroke-linecap="round" stroke-linejoin="round"/>
<path d="M2.66675 12L6.66675 16L2.66675 20" stroke="#009BDE" stroke-width="2" stroke-linecap="round" stroke-linejoin="round"/>
<path d="M26.6667 18.6666H12.0001C11.2637 18.6666 10.6667 19.2636 10.6667 20V26.6666C10.6667 27.403 11.2637 28 12.0001 28H26.6667C27.4031 28 28.0001 27.403 28.0001 26.6666V20C28.0001 19.2636 27.4031 18.6666 26.6667 18.6666Z" stroke="#009BDE" stroke-width="2" stroke-linecap="round" stroke-linejoin="round"/>
</svg>
