<svg width="32" height="32" viewBox="0 0 32 32" fill="none" xmlns="http://www.w3.org/2000/svg">
<path d="M24 10.6667C24 16.6667 16 22.6667 16 22.6667C16 22.6667 8 16.6667 8 10.6667C8 8.54502 8.84286 6.51018 10.3431 5.00989C11.8434 3.5096 13.8783 2.66675 16 2.66675C18.1217 2.66675 20.1566 3.5096 21.6569 5.00989C23.1571 6.51018 24 8.54502 24 10.6667Z" stroke="#F89938" stroke-width="2" stroke-linecap="round" stroke-linejoin="round"/>
<path d="M16 13.3333C17.4727 13.3333 18.6666 12.1394 18.6666 10.6667C18.6666 9.19391 17.4727 8 16 8C14.5272 8 13.3333 9.19391 13.3333 10.6667C13.3333 12.1394 14.5272 13.3333 16 13.3333Z" stroke="#F89938" stroke-width="2" stroke-linecap="round" stroke-linejoin="round"/>
<path d="M11.78 18.6667H6.66669C6.3954 18.6815 6.1351 18.7788 5.92064 18.9456C5.70618 19.1124 5.54779 19.3408 5.46669 19.6001L2.80002 27.6001C2.66669 27.7334 2.66669 27.8667 2.66669 28.0001C2.66669 28.8001 3.20002 29.3334 4.00002 29.3334H28C28.8 29.3334 29.3334 28.8001 29.3334 28.0001C29.3334 27.8667 29.3334 27.7334 29.2 27.6001L26.5334 19.6001C26.4522 19.3408 26.2939 19.1124 26.0794 18.9456C25.8649 18.7788 25.6046 18.6815 25.3334 18.6667H20.22" stroke="#F89938" stroke-width="2" stroke-linecap="round" stroke-linejoin="round"/>
</svg>
