<svg width="32" height="32" viewBox="0 0 32 32" fill="none" xmlns="http://www.w3.org/2000/svg">
<path d="M26.6667 4H12C11.2636 4 10.6667 4.59695 10.6667 5.33333V12C10.6667 12.7364 11.2636 13.3333 12 13.3333H26.6667C27.4031 13.3333 28 12.7364 28 12V5.33333C28 4.59695 27.4031 4 26.6667 4Z" stroke="#F89938" stroke-width="2" stroke-linecap="round" stroke-linejoin="round"/>
<path d="M2.66669 12L6.66669 16L2.66669 20" stroke="#F89938" stroke-width="2" stroke-linecap="round" stroke-linejoin="round"/>
<path d="M26.6667 18.6666H12C11.2636 18.6666 10.6667 19.2636 10.6667 20V26.6666C10.6667 27.403 11.2636 28 12 28H26.6667C27.4031 28 28 27.403 28 26.6666V20C28 19.2636 27.4031 18.6666 26.6667 18.6666Z" stroke="#F89938" stroke-width="2" stroke-linecap="round" stroke-linejoin="round"/>
</svg>
