<svg width="33" height="32" viewBox="0 0 33 32" fill="none" xmlns="http://www.w3.org/2000/svg">
<path d="M16.5 4V26.6667C16.5 27.0203 16.3595 27.3594 16.1095 27.6095C15.8594 27.8595 15.5203 28 15.1667 28H7.16667C6.45942 28 5.78115 27.719 5.28105 27.219C4.78095 26.7189 4.5 26.0406 4.5 25.3333V6.66667C4.5 5.95942 4.78095 5.28115 5.28105 4.78105C5.78115 4.28095 6.45942 4 7.16667 4H25.8333C26.5406 4 27.2189 4.28095 27.719 4.78105C28.219 5.28115 28.5 5.95942 28.5 6.66667V14.6667C28.5 15.0203 28.3595 15.3594 28.1095 15.6095C27.8594 15.8595 27.5203 16 27.1667 16H4.5" stroke="#F89938" stroke-width="2" stroke-linecap="round" stroke-linejoin="round"/>
<path d="M21.8333 25.3334L24.5 28.0001L29.8333 22.6667" stroke="#F89938" stroke-width="2" stroke-linecap="round" stroke-linejoin="round"/>
</svg>
