<svg width="88" height="88" viewBox="0 0 88 88" fill="none" xmlns="http://www.w3.org/2000/svg">
<path d="M66 29.3334C66 45.8334 44 62.3334 44 62.3334C44 62.3334 22 45.8334 22 29.3334C22 23.4986 24.3179 17.9028 28.4437 13.777C32.5695 9.65122 38.1652 7.33337 44 7.33337C49.8348 7.33337 55.4306 9.65122 59.5564 13.777C63.6822 17.9028 66 23.4986 66 29.3334Z" stroke="#F89938" stroke-width="2" stroke-linecap="round" stroke-linejoin="round"/>
<path d="M44.0001 36.6667C48.0502 36.6667 51.3334 33.3834 51.3334 29.3333C51.3334 25.2832 48.0502 22 44.0001 22C39.95 22 36.6667 25.2832 36.6667 29.3333C36.6667 33.3834 39.95 36.6667 44.0001 36.6667Z" stroke="#F89938" stroke-width="2" stroke-linecap="round" stroke-linejoin="round"/>
<path d="M32.3949 51.3334H18.3333C17.5872 51.374 16.8714 51.6416 16.2816 52.1003C15.6919 52.559 15.2563 53.187 15.0333 53.9L7.69992 75.9C7.33325 76.2667 7.33325 76.6334 7.33325 77C7.33325 79.2 8.79992 80.6667 10.9999 80.6667H76.9999C79.1999 80.6667 80.6666 79.2 80.6666 77C80.6666 76.6334 80.6666 76.2667 80.2999 75.9L72.9666 53.9C72.7435 53.187 72.308 52.559 71.7182 52.1003C71.1285 51.6416 70.4126 51.374 69.6666 51.3334H55.6049" stroke="#F89938" stroke-width="2" stroke-linecap="round" stroke-linejoin="round"/>
</svg>
