<svg width="32" height="32" viewBox="0 0 32 32" fill="none" xmlns="http://www.w3.org/2000/svg">
<path d="M16 20C18.2091 20 20 18.2091 20 16C20 13.7909 18.2091 12 16 12C13.7909 12 12 13.7909 12 16C12 18.2091 13.7909 20 16 20Z" stroke="#009BDE" stroke-width="2" stroke-linecap="round" stroke-linejoin="round"/>
<path d="M6.00008 13.3334H5.33341C4.62617 13.3334 3.94789 13.0524 3.4478 12.5523C2.9477 12.0522 2.66675 11.3739 2.66675 10.6667V5.33335C2.66675 4.62611 2.9477 3.94783 3.4478 3.44774C3.94789 2.94764 4.62617 2.66669 5.33341 2.66669H26.6667C27.374 2.66669 28.0523 2.94764 28.5524 3.44774C29.0525 3.94783 29.3334 4.62611 29.3334 5.33335V10.6667C29.3334 11.3739 29.0525 12.0522 28.5524 12.5523C28.0523 13.0524 27.374 13.3334 26.6667 13.3334H26.0001" stroke="#009BDE" stroke-width="2" stroke-linecap="round" stroke-linejoin="round"/>
<path d="M6.00008 18.6667H5.33341C4.62617 18.6667 3.94789 18.9476 3.4478 19.4477C2.9477 19.9478 2.66675 20.6261 2.66675 21.3334V26.6667C2.66675 27.3739 2.9477 28.0522 3.4478 28.5523C3.94789 29.0524 4.62617 29.3334 5.33341 29.3334H26.6667C27.374 29.3334 28.0523 29.0524 28.5524 28.5523C29.0525 28.0522 29.3334 27.3739 29.3334 26.6667V21.3334C29.3334 20.6261 29.0525 19.9478 28.5524 19.4477C28.0523 18.9476 27.374 18.6667 26.6667 18.6667H26.0001" stroke="#009BDE" stroke-width="2" stroke-linecap="round" stroke-linejoin="round"/>
<path d="M8 8H8.01333" stroke="#009BDE" stroke-width="2" stroke-linecap="round" stroke-linejoin="round"/>
<path d="M8 24H8.01333" stroke="#009BDE" stroke-width="2" stroke-linecap="round" stroke-linejoin="round"/>
<path d="M20.9334 17.8667L19.7334 17.4667" stroke="#009BDE" stroke-width="2" stroke-linecap="round" stroke-linejoin="round"/>
<path d="M12.2666 14.5334L11.0667 14.1334" stroke="#009BDE" stroke-width="2" stroke-linecap="round" stroke-linejoin="round"/>
<path d="M14.1333 20.9333L14.5333 19.7333" stroke="#009BDE" stroke-width="2" stroke-linecap="round" stroke-linejoin="round"/>
<path d="M18.1334 20.9333L17.6001 19.6" stroke="#009BDE" stroke-width="2" stroke-linecap="round" stroke-linejoin="round"/>
<path d="M14.4 12.4L13.8667 11.0667" stroke="#009BDE" stroke-width="2" stroke-linecap="round" stroke-linejoin="round"/>
<path d="M11.0667 18.1333L12.4 17.6" stroke="#009BDE" stroke-width="2" stroke-linecap="round" stroke-linejoin="round"/>
<path d="M19.6001 14.4L20.9334 13.8666" stroke="#009BDE" stroke-width="2" stroke-linecap="round" stroke-linejoin="round"/>
<path d="M17.8666 11.0667L17.4666 12.2666" stroke="#009BDE" stroke-width="2" stroke-linecap="round" stroke-linejoin="round"/>
</svg>
