<svg width="32" height="32" viewBox="0 0 32 32" fill="none" xmlns="http://www.w3.org/2000/svg">
<path d="M5.99992 21.9999C3.99992 23.6799 3.33325 28.6666 3.33325 28.6666C3.33325 28.6666 8.31992 27.9999 9.99992 25.9999C10.9466 24.8799 10.9333 23.1599 9.87992 22.1199C9.36166 21.6253 8.67898 21.3395 7.96289 21.3173C7.2468 21.2952 6.54775 21.5383 5.99992 21.9999Z" stroke="#F89938" stroke-width="2" stroke-linecap="round" stroke-linejoin="round"/>
<path d="M16 20L12 16C12.7095 14.1593 13.6029 12.3948 14.6667 10.7334C16.2202 8.24936 18.3835 6.20411 20.9507 4.79217C23.5178 3.38022 26.4036 2.64854 29.3333 2.66671C29.3333 6.29338 28.2933 12.6667 21.3333 17.3334C19.6492 18.3983 17.8625 19.2917 16 20Z" stroke="#F89938" stroke-width="2" stroke-linecap="round" stroke-linejoin="round"/>
<path d="M11.9999 15.9999H5.33325C5.33325 15.9999 6.06659 11.9599 7.99992 10.6666C10.1599 9.22661 14.6666 10.6666 14.6666 10.6666" stroke="#F89938" stroke-width="2" stroke-linecap="round" stroke-linejoin="round"/>
<path d="M16 20V26.6667C16 26.6667 20.04 25.9334 21.3333 24C22.7733 21.84 21.3333 17.3334 21.3333 17.3334" stroke="#F89938" stroke-width="2" stroke-linecap="round" stroke-linejoin="round"/>
</svg>
