<svg width="32" height="32" viewBox="0 0 32 32" fill="none" xmlns="http://www.w3.org/2000/svg">
<path d="M20 4H5.33333C4.59695 4 4 4.59695 4 5.33333V12C4 12.7364 4.59695 13.3333 5.33333 13.3333H20C20.7364 13.3333 21.3333 12.7364 21.3333 12V5.33333C21.3333 4.59695 20.7364 4 20 4Z" stroke="#009BDE" stroke-width="2" stroke-linecap="round" stroke-linejoin="round"/>
<path d="M29.3333 20L25.3333 16L29.3333 12" stroke="#009BDE" stroke-width="2" stroke-linecap="round" stroke-linejoin="round"/>
<path d="M20 18.6667H5.33333C4.59695 18.6667 4 19.2636 4 20V26.6667C4 27.4031 4.59695 28 5.33333 28H20C20.7364 28 21.3333 27.4031 21.3333 26.6667V20C21.3333 19.2636 20.7364 18.6667 20 18.6667Z" stroke="#009BDE" stroke-width="2" stroke-linecap="round" stroke-linejoin="round"/>
</svg>
