<svg width="334" height="72" viewBox="0 0 334 72" fill="none" xmlns="http://www.w3.org/2000/svg">
<path d="M50.9419 51.0193H44.4386L50.0515 39.6774H50.129L50.9419 51.0193ZM51.2515 56.129L51.6386 60.6193H58.7612L56.3999 34.4128H45.7935L32.3612 60.6193H39.6386L41.8838 56.129H51.2515Z" fill="#F89938"/>
<path d="M68.7483 49.1612H69.7934L74.9031 42.2709H81.4838L74.4386 51.0967L78.7741 60.6193H71.7676L68.9418 53.187H67.8967L66.3096 60.6193H60.3096L65.8451 34.4128H71.8838L68.7483 49.1612Z" fill="#F89938"/>
<path d="M89.187 53.0322C91.1612 53.0322 92.4386 53.1871 92.1289 54.6968C91.7031 56.6322 90.8902 56.9419 88.3741 56.9419C87.4451 56.9419 85.7418 56.9419 86.1676 54.9677C86.516 53.3032 87.716 53.0322 89.187 53.0322ZM90.8515 60.6193H96.8515L99.2902 49.1613C100.645 42.8516 98.2063 42.0774 92.0515 42.0774C87.7547 42.0774 83.6128 42.0387 82.3741 47.729H88.3741C88.7225 46.0645 89.7289 45.7548 91.2386 45.7548C93.8709 45.7548 93.7547 46.8387 93.3676 48.5419L92.7483 51.4451H92.4773C92.2451 49.3548 89.6128 49.3935 87.9096 49.3935C83.5741 49.3935 80.9805 50.7484 80.0515 55.1613C79.0451 59.8451 81.2902 60.8516 85.4709 60.8516C87.5612 60.8516 90.387 60.4258 91.3547 57.9097H91.5483L90.8515 60.6193Z" fill="#F89938"/>
<path d="M109.006 42.2709L108.464 44.8645H108.697C109.897 42.6967 112.258 42.0774 114.31 42.0774C116.903 42.0774 119.458 42.5419 119.11 45.6774H119.381C120.271 43.0451 122.942 42.0774 125.264 42.0774C129.484 42.0774 131.303 43.8193 130.374 48.0774L127.703 60.6193H121.703L123.948 50.0129C124.258 48.0774 124.568 46.6838 122.245 46.6838C119.923 46.6838 119.11 48.2322 118.723 50.2064L116.516 60.6193H110.516L112.877 49.5097C113.148 47.8451 113.303 46.6838 111.213 46.6838C108.735 46.6838 108 48 107.535 50.2064L105.329 60.6193H99.329L103.239 42.2709H109.006Z" fill="#F89938"/>
<path d="M139.819 53.0322C141.755 53.0322 143.071 53.1871 142.761 54.6968C142.374 56.6322 141.523 56.9419 139.006 56.9419C138.116 56.9419 136.374 56.9419 136.8 54.9677C137.148 53.3032 138.348 53.0322 139.819 53.0322ZM141.484 60.6193H147.484L149.923 49.1613C151.277 42.8516 148.839 42.0774 142.684 42.0774C138.387 42.0774 134.206 42.0387 133.006 47.729H139.006C139.355 46.0645 140.361 45.7548 141.871 45.7548C144.503 45.7548 144.387 46.8387 144 48.5419L143.458 51.4451H143.187C142.955 49.3548 140.323 49.3935 138.619 49.3935C134.284 49.3935 131.69 50.7484 130.761 55.1613C129.755 59.8451 132 60.8516 136.181 60.8516C138.271 60.8516 141.097 60.4258 142.103 57.9097H142.297L141.484 60.6193Z" fill="#F89938"/>
<path d="M156.155 60.6194H150.155L154.026 42.271H160.026L156.155 60.6194Z" fill="#F89938"/>
<path d="M161.38 37.2C161.38 39.0581 159.871 40.5678 158.013 40.5678C156.155 40.5678 154.645 39.0581 154.645 37.2C154.645 35.342 156.155 33.8323 158.013 33.8323C159.871 33.8323 161.38 35.342 161.38 37.2Z" fill="#F89938"/>
<path d="M35.4193 66.9677C22.1032 62.9032 12.3871 50.5935 12.3871 36.0387C12.3871 21.2903 22.2967 8.86448 35.8451 4.9548C37.2387 4.5677 36.8516 3.63867 35.1871 3.63867C17.1871 3.63867 2.55481 18.1548 2.55481 36.0387C2.55481 53.9225 17.1484 68.4 35.1871 68.4C36.8516 68.4 36.929 67.4322 35.4193 66.9677Z" fill="#009BDE"/>
<path d="M18.5806 43.5869C18.5031 42.7353 18.4257 41.845 18.4257 40.9547C18.4257 26.7482 29.9225 15.2515 44.129 15.2515C57.5612 15.2515 61.587 21.2515 62.0902 20.8644C62.6322 20.4386 57.2128 8.55469 41.458 8.55469C27.2515 8.55469 15.7548 20.0515 15.7548 34.2579C15.7548 37.5482 16.3741 40.6837 17.4967 43.5482C17.9612 44.7869 18.6967 44.7869 18.5806 43.5869Z" fill="#009BDE"/>
<path d="M29.342 25.0838C36 22.1806 44.4 22.1032 52.6452 24.9677C58.1807 26.9032 61.3936 29.6516 61.6645 29.5355C62.0903 29.3419 58.4516 23.5355 51.8323 21.058C43.8194 18.0387 35.2258 19.6258 28.9549 24.5419C28.2581 25.0838 28.529 25.4322 29.342 25.0838Z" fill="#009BDE"/>
<g opacity="0.6">
<path d="M326.504 59.2995C325.24 59.2995 324.187 59.0231 323.346 58.4703C322.513 57.9175 321.926 57.1451 321.586 56.1531C321.245 55.161 321.181 54.0024 321.393 52.6772C321.605 51.3899 322.021 50.2616 322.642 49.2923C323.271 48.3154 324.054 47.5544 324.993 47.0091C325.94 46.4563 326.993 46.1799 328.151 46.1799C328.886 46.1799 329.579 46.3011 330.23 46.5434C330.881 46.7857 331.441 47.1644 331.911 47.6793C332.38 48.1942 332.71 48.8568 332.899 49.6671C333.096 50.4774 333.096 51.458 332.899 52.6091L332.763 53.4383H322.665L322.972 51.5868H331.809L330.548 52.1547C330.684 51.3672 330.688 50.6818 330.559 50.0988C330.431 49.5081 330.165 49.05 329.764 48.7243C329.37 48.3911 328.825 48.2245 328.128 48.2245C327.401 48.2245 326.743 48.4025 326.152 48.7584C325.569 49.1067 325.084 49.5649 324.698 50.1328C324.319 50.7008 324.073 51.3179 323.96 51.9843L323.755 53.2452C323.619 54.1085 323.642 54.8392 323.823 55.4374C324.005 56.0357 324.331 56.49 324.8 56.8005C325.277 57.111 325.876 57.2662 326.595 57.2662C327.087 57.2662 327.542 57.1943 327.958 57.0504C328.382 56.899 328.757 56.6869 329.083 56.4143C329.416 56.1341 329.692 55.7934 329.912 55.392L332.195 55.9259C331.892 56.6074 331.468 57.2019 330.923 57.7092C330.378 58.209 329.73 58.599 328.98 58.8792C328.238 59.1594 327.413 59.2995 326.504 59.2995Z" fill="#262A2E"/>
<path d="M321.404 46.3389L321.074 48.3267H314.145L314.475 46.3389H321.404ZM316.826 43.3174H319.302L317.292 55.3124C317.216 55.7819 317.227 56.1416 317.326 56.3915C317.432 56.6338 317.595 56.7966 317.814 56.8799C318.034 56.9557 318.28 56.9935 318.553 56.9935C318.757 57.0011 318.931 56.9935 319.075 56.9708C319.226 56.9405 319.344 56.9178 319.427 56.9026L319.563 58.9472C319.397 59.0003 319.173 59.057 318.893 59.1176C318.613 59.1782 318.276 59.2047 317.882 59.1971C317.231 59.2123 316.644 59.0987 316.122 58.8564C315.599 58.6141 315.209 58.2392 314.952 57.7318C314.694 57.2169 314.63 56.577 314.759 55.8122L316.826 43.3174Z" fill="#262A2E"/>
<path d="M309.409 53.7903L310.658 46.3389H313.123L311.01 59.0381H308.591L308.954 56.8345H308.818C308.424 57.5085 307.868 58.0726 307.148 58.527C306.429 58.9813 305.588 59.2047 304.627 59.1972C303.816 59.1972 303.127 59.0192 302.559 58.6633C301.991 58.3074 301.586 57.7735 301.344 57.0617C301.101 56.3499 301.071 55.4676 301.253 54.4151L302.605 46.3389H305.081L303.797 54.1311C303.653 54.9868 303.778 55.6721 304.172 56.187C304.574 56.702 305.153 56.9557 305.91 56.9481C306.372 56.9481 306.849 56.8345 307.341 56.6073C307.841 56.3801 308.28 56.0318 308.659 55.5623C309.045 55.0928 309.295 54.5021 309.409 53.7903Z" fill="#262A2E"/>
<path d="M286.293 63.7862L289.224 46.339H291.632L291.291 48.4063H291.484C291.681 48.1412 291.939 47.8345 292.257 47.4862C292.582 47.1379 293.01 46.835 293.54 46.5775C294.07 46.3125 294.729 46.1799 295.517 46.1799C296.539 46.1799 297.406 46.4374 298.118 46.9523C298.83 47.4673 299.333 48.2132 299.629 49.19C299.932 50.1669 299.969 51.3445 299.742 52.7227C299.515 54.0857 299.091 55.2595 298.47 56.2439C297.857 57.2208 297.107 57.9705 296.221 58.493C295.335 59.0155 294.377 59.2805 293.347 59.2881C292.582 59.2805 291.977 59.148 291.53 58.8906C291.091 58.6331 290.761 58.3302 290.542 57.9818C290.322 57.6335 290.155 57.3268 290.042 57.0618H289.905L288.781 63.7862H286.293ZM293.165 57.1867C293.9 57.1791 294.544 56.9823 295.096 56.5961C295.657 56.2023 296.119 55.6684 296.482 54.9944C296.853 54.3129 297.111 53.5481 297.255 52.6999C297.383 51.8594 297.376 51.1059 297.232 50.4395C297.096 49.7731 296.815 49.2468 296.391 48.8606C295.967 48.4744 295.38 48.2813 294.631 48.2813C293.911 48.2813 293.271 48.4669 292.711 48.8379C292.158 49.2014 291.7 49.7163 291.337 50.3827C290.981 51.0415 290.731 51.814 290.587 52.6999C290.443 53.5859 290.443 54.3659 290.587 55.0399C290.731 55.7138 291.019 56.2401 291.45 56.6188C291.882 56.9898 292.454 57.1791 293.165 57.1867Z" fill="#262A2E"/>
<path d="M267.472 59.0382L269.584 46.339H271.947L271.606 48.429H271.777C272.155 47.7247 272.678 47.1757 273.344 46.782C274.011 46.3806 274.764 46.1799 275.605 46.1799C276.438 46.1799 277.112 46.3806 277.627 46.782C278.141 47.1757 278.475 47.7247 278.626 48.429H278.762C279.179 47.7399 279.751 47.1947 280.478 46.7933C281.212 46.3844 282.034 46.1799 282.943 46.1799C284.086 46.1799 284.964 46.5434 285.578 47.2704C286.191 47.9974 286.38 49.084 286.146 50.5304L284.715 59.0382H282.238L283.635 50.7576C283.772 49.8943 283.635 49.2733 283.226 48.8947C282.825 48.5161 282.299 48.323 281.648 48.3154C280.845 48.323 280.179 48.5691 279.648 49.0537C279.126 49.5384 278.8 50.1669 278.672 50.9393L277.32 59.0382H274.866L276.275 50.5985C276.381 49.9094 276.256 49.3604 275.9 48.9515C275.544 48.535 275.022 48.323 274.332 48.3154C273.863 48.3154 273.409 48.4404 272.969 48.6903C272.53 48.9401 272.155 49.2809 271.845 49.7126C271.534 50.1442 271.334 50.644 271.243 51.2119L269.948 59.0382H267.472Z" fill="#262A2E"/>
<path d="M259.839 59.2995C258.627 59.2919 257.616 59.0117 256.806 58.4589C256.003 57.9061 255.435 57.1337 255.102 56.1417C254.776 55.1421 254.72 53.9797 254.932 52.6545C255.144 51.352 255.568 50.2161 256.204 49.2468C256.84 48.2775 257.639 47.5241 258.601 46.9864C259.562 46.4488 260.63 46.1799 261.804 46.1799C263.015 46.1799 264.023 46.4601 264.825 47.0205C265.628 47.5733 266.196 48.3495 266.529 49.3491C266.862 50.3487 266.919 51.5148 266.7 52.8476C266.495 54.1425 266.071 55.2746 265.427 56.2439C264.791 57.2057 263.992 57.9553 263.031 58.493C262.076 59.0231 261.013 59.2919 259.839 59.2995ZM259.975 57.2322C260.77 57.2246 261.463 57.0125 262.054 56.5961C262.644 56.1796 263.125 55.6268 263.496 54.9377C263.875 54.241 264.129 53.4761 264.257 52.6432C264.394 51.848 264.394 51.1173 264.257 50.4509C264.129 49.7845 263.852 49.2506 263.428 48.8493C263.004 48.4404 262.413 48.2397 261.656 48.2473C260.869 48.2397 260.176 48.4479 259.577 48.872C258.987 49.2961 258.502 49.8564 258.124 50.5531C257.752 51.2498 257.503 52.0146 257.374 52.8476C257.238 53.6352 257.234 54.3621 257.363 55.0285C257.491 55.6949 257.768 56.2288 258.192 56.6301C258.623 57.0239 259.218 57.2246 259.975 57.2322Z" fill="#262A2E"/>
<path d="M245.674 59.2654C244.182 59.2654 242.91 58.9095 241.858 58.1976C240.805 57.4858 240.052 56.4711 239.597 55.1534C239.143 53.8282 239.067 52.2531 239.37 50.4281C239.673 48.641 240.252 47.1113 241.108 45.8391C241.964 44.5669 243.009 43.5901 244.243 42.9085C245.485 42.227 246.825 41.8862 248.264 41.8862C249.173 41.8862 250.002 42.015 250.752 42.2724C251.501 42.5299 252.149 42.9047 252.694 43.397C253.247 43.8892 253.671 44.4912 253.966 45.203C254.262 45.9149 254.409 46.7213 254.409 47.6225H251.887C251.872 47.0697 251.766 46.585 251.569 46.1685C251.38 45.7445 251.119 45.3886 250.786 45.1008C250.452 44.813 250.062 44.5934 249.616 44.442C249.177 44.2905 248.699 44.2148 248.184 44.2148C247.185 44.2148 246.246 44.4685 245.367 44.9759C244.489 45.4832 243.739 46.2215 243.118 47.1908C242.505 48.1601 242.085 49.3377 241.858 50.7235C241.63 52.079 241.657 53.2186 241.937 54.1425C242.217 55.0664 242.691 55.763 243.357 56.2325C244.031 56.702 244.841 56.9368 245.788 56.9368C246.341 56.9368 246.878 56.8649 247.401 56.721C247.923 56.5771 248.408 56.3613 248.855 56.0735C249.309 55.7858 249.707 55.4336 250.047 55.0171C250.396 54.6006 250.672 54.1236 250.877 53.5859H253.444C253.163 54.4265 252.773 55.1951 252.274 55.8918C251.774 56.5809 251.183 57.1791 250.502 57.6865C249.82 58.1863 249.07 58.5763 248.253 58.8564C247.442 59.1291 246.583 59.2654 245.674 59.2654Z" fill="#262A2E"/>
<path d="M226.023 59.2995C224.759 59.2995 223.706 59.0231 222.865 58.4703C222.032 57.9175 221.446 57.1451 221.105 56.1531C220.764 55.161 220.7 54.0024 220.912 52.6772C221.124 51.3899 221.54 50.2616 222.161 49.2923C222.79 48.3154 223.573 47.5544 224.512 47.0091C225.459 46.4563 226.512 46.1799 227.67 46.1799C228.405 46.1799 229.098 46.3011 229.749 46.5434C230.4 46.7857 230.961 47.1644 231.43 47.6793C231.9 48.1942 232.229 48.8568 232.418 49.6671C232.615 50.4774 232.615 51.458 232.418 52.6091L232.282 53.4383H222.184L222.491 51.5868H231.328L230.067 52.1547C230.203 51.3672 230.207 50.6818 230.078 50.0988C229.95 49.5081 229.685 49.05 229.283 48.7243C228.889 48.3911 228.344 48.2245 227.648 48.2245C226.921 48.2245 226.262 48.4025 225.671 48.7584C225.088 49.1067 224.603 49.5649 224.217 50.1328C223.838 50.7008 223.592 51.3179 223.479 51.9843L223.274 53.2452C223.138 54.1085 223.161 54.8392 223.342 55.4374C223.524 56.0357 223.85 56.49 224.319 56.8005C224.796 57.111 225.395 57.2662 226.114 57.2662C226.606 57.2662 227.061 57.1943 227.477 57.0504C227.901 56.899 228.276 56.6869 228.602 56.4143C228.935 56.1341 229.211 55.7934 229.431 55.392L231.714 55.9259C231.411 56.6074 230.987 57.2019 230.442 57.7092C229.897 58.209 229.249 58.599 228.499 58.8792C227.757 59.1594 226.932 59.2995 226.023 59.2995Z" fill="#262A2E"/>
<path d="M211.575 64.0589C210.552 64.0589 209.7 63.9263 209.019 63.6613C208.337 63.4038 207.804 63.0555 207.417 62.6163C207.031 62.1771 206.766 61.7 206.622 61.1851L208.905 60.3104C209.011 60.5527 209.163 60.8102 209.36 61.0828C209.557 61.3554 209.852 61.5864 210.246 61.7757C210.639 61.965 211.185 62.0597 211.881 62.0597C212.813 62.0673 213.627 61.8439 214.324 61.3895C215.028 60.9352 215.459 60.212 215.618 59.22L216.016 56.7324H215.846C215.664 56.9974 215.406 57.2965 215.073 57.6297C214.74 57.9629 214.312 58.2507 213.79 58.493C213.275 58.7277 212.627 58.8451 211.847 58.8451C210.848 58.8451 209.984 58.6104 209.257 58.1409C208.53 57.6714 208.012 56.9747 207.701 56.0508C207.391 55.127 207.345 53.9911 207.565 52.6432C207.785 51.2952 208.205 50.1404 208.826 49.1787C209.447 48.2094 210.2 47.4673 211.086 46.9523C211.98 46.4374 212.938 46.1799 213.96 46.1799C214.748 46.1799 215.361 46.3125 215.8 46.5775C216.239 46.835 216.565 47.1379 216.777 47.4862C216.997 47.8345 217.159 48.1412 217.265 48.4063H217.447L217.777 46.339H220.196L218.038 59.3222C217.864 60.4127 217.466 61.3062 216.845 62.0029C216.224 62.6996 215.456 63.2145 214.539 63.5477C213.631 63.8885 212.642 64.0589 211.575 64.0589ZM212.688 56.7892C213.392 56.7892 214.021 56.6226 214.573 56.2894C215.134 55.9562 215.596 55.4791 215.959 54.8581C216.33 54.2296 216.592 53.4799 216.743 52.6091C216.879 51.7534 216.868 51.0037 216.709 50.36C216.55 49.7088 216.247 49.2014 215.8 48.8379C215.361 48.4669 214.785 48.2813 214.074 48.2813C213.332 48.2813 212.684 48.4744 212.131 48.8606C211.578 49.2393 211.128 49.758 210.78 50.4168C210.439 51.0681 210.2 51.7988 210.064 52.6091C209.935 53.4345 209.939 54.1652 210.075 54.8013C210.212 55.4299 210.496 55.9183 210.927 56.2666C211.366 56.615 211.953 56.7892 212.688 56.7892Z" fill="#262A2E"/>
<path d="M198.387 59.288C197.357 59.2804 196.486 59.0153 195.774 58.4928C195.07 57.9703 194.57 57.2206 194.275 56.2438C193.98 55.2593 193.938 54.0856 194.15 52.7225C194.385 51.3443 194.813 50.1668 195.434 49.1899C196.062 48.213 196.819 47.4671 197.705 46.9522C198.599 46.4372 199.557 46.1798 200.579 46.1798C201.367 46.1798 201.976 46.3123 202.408 46.5773C202.847 46.8348 203.173 47.1377 203.385 47.486C203.597 47.8344 203.752 48.1411 203.851 48.4061H203.998L205.043 42.1133H207.508L204.714 59.0381H202.306L202.624 57.0616H202.419C202.23 57.3267 201.965 57.6333 201.624 57.9817C201.291 58.33 200.859 58.6329 200.329 58.8904C199.807 59.1479 199.159 59.2804 198.387 59.288ZM199.227 57.1866C199.939 57.179 200.575 56.9897 201.136 56.6186C201.696 56.24 202.166 55.7137 202.544 55.0397C202.93 54.3658 203.195 53.5858 203.339 52.6998C203.491 51.8138 203.487 51.0414 203.328 50.3826C203.177 49.7162 202.877 49.2012 202.431 48.8378C201.991 48.4667 201.412 48.2812 200.693 48.2812C199.951 48.2812 199.303 48.4743 198.75 48.8605C198.198 49.2467 197.747 49.773 197.399 50.4394C197.05 51.1058 196.808 51.8592 196.672 52.6998C196.528 53.5479 196.52 54.3128 196.649 54.9943C196.785 55.6683 197.065 56.2021 197.49 56.5959C197.914 56.9821 198.493 57.179 199.227 57.1866Z" fill="#262A2E"/>
<path d="M180.826 59.0381L183.62 42.1133H194.241L193.877 44.3056H185.812L184.961 49.4739H192.457L192.094 51.6661H184.597L183.734 56.8458H191.89L191.526 59.0381H180.826Z" fill="#262A2E"/>
</g>
<path d="M174.696 29.116L166.523 66.405" stroke="#F89938"/>
</svg>
