<svg width="334" height="72" viewBox="0 0 334 72" fill="none" xmlns="http://www.w3.org/2000/svg">
<path d="M50.942 51.0193H44.4388L50.0517 39.6774H50.1291L50.942 51.0193ZM51.2516 56.129L51.6387 60.6193H58.7613L56.4 34.4128H45.7936L32.3613 60.6193H39.6387L41.8839 56.129H51.2516Z" fill="white"/>
<path d="M68.7485 49.1612H69.7937L74.9034 42.2709H81.484L74.4388 51.0967L78.7743 60.6193H71.7679L68.9421 53.187H67.8969L66.3098 60.6193H60.3098L65.8453 34.4128H71.884L68.7485 49.1612Z" fill="white"/>
<path d="M89.1872 53.0322C91.1614 53.0322 92.4388 53.1871 92.1292 54.6968C91.7034 56.6322 90.8905 56.9419 88.3743 56.9419C87.4453 56.9419 85.7421 56.9419 86.1679 54.9677C86.5163 53.3032 87.7163 53.0322 89.1872 53.0322ZM90.8517 60.6193H96.8517L99.2905 49.1613C100.645 42.8516 98.2066 42.0774 92.0518 42.0774C87.755 42.0774 83.613 42.0387 82.3743 47.729H88.3743C88.7227 46.0645 89.7292 45.7548 91.2388 45.7548C93.8711 45.7548 93.755 46.8387 93.3679 48.5419L92.7485 51.4451H92.4776C92.2453 49.3548 89.613 49.3935 87.9098 49.3935C83.5743 49.3935 80.9808 50.7484 80.0518 55.1613C79.0453 59.8451 81.2905 60.8516 85.4711 60.8516C87.5614 60.8516 90.3872 60.4258 91.355 57.9097H91.5485L90.8517 60.6193Z" fill="white"/>
<path d="M109.007 42.2709L108.465 44.8645H108.697C109.897 42.6967 112.258 42.0774 114.31 42.0774C116.903 42.0774 119.458 42.5419 119.11 45.6774H119.381C120.271 43.0451 122.942 42.0774 125.265 42.0774C129.484 42.0774 131.303 43.8193 130.374 48.0774L127.703 60.6193H121.703L123.948 50.0129C124.258 48.0774 124.568 46.6838 122.245 46.6838C119.923 46.6838 119.11 48.2322 118.723 50.2064L116.516 60.6193H110.516L112.877 49.5097C113.148 47.8451 113.303 46.6838 111.213 46.6838C108.736 46.6838 108 48 107.536 50.2064L105.329 60.6193H99.3291L103.239 42.2709H109.007Z" fill="white"/>
<path d="M139.819 53.0322C141.755 53.0322 143.071 53.1871 142.761 54.6968C142.374 56.6322 141.523 56.9419 139.006 56.9419C138.116 56.9419 136.374 56.9419 136.8 54.9677C137.148 53.3032 138.348 53.0322 139.819 53.0322ZM141.484 60.6193H147.484L149.923 49.1613C151.277 42.8516 148.839 42.0774 142.684 42.0774C138.387 42.0774 134.206 42.0387 133.006 47.729H139.006C139.355 46.0645 140.361 45.7548 141.871 45.7548C144.503 45.7548 144.387 46.8387 144 48.5419L143.458 51.4451H143.187C142.955 49.3548 140.323 49.3935 138.619 49.3935C134.284 49.3935 131.69 50.7484 130.761 55.1613C129.755 59.8451 132 60.8516 136.181 60.8516C138.271 60.8516 141.097 60.4258 142.103 57.9097H142.297L141.484 60.6193Z" fill="white"/>
<path d="M156.155 60.6194H150.155L154.026 42.271H160.026L156.155 60.6194Z" fill="white"/>
<path d="M35.4194 66.9677C22.1033 62.9032 12.3872 50.5935 12.3872 36.0387C12.3872 21.2903 22.2969 8.86448 35.8453 4.9548C37.2388 4.5677 36.8517 3.63867 35.1872 3.63867C17.1872 3.63867 2.55493 18.1548 2.55493 36.0387C2.55493 53.9225 17.1485 68.4 35.1872 68.4C36.8517 68.4 36.9291 67.4322 35.4194 66.9677Z" fill="white"/>
<path d="M18.5807 43.5869C18.5033 42.7353 18.4258 41.845 18.4258 40.9547C18.4258 26.7482 29.9226 15.2515 44.1291 15.2515C57.5613 15.2515 61.5871 21.2515 62.0904 20.8644C62.6323 20.4386 57.2129 8.55469 41.4581 8.55469C27.2517 8.55469 15.7549 20.0515 15.7549 34.2579C15.7549 37.5482 16.3742 40.6837 17.4968 43.5482C17.9613 44.7869 18.6968 44.7869 18.5807 43.5869Z" fill="white"/>
<path d="M29.342 25.0838C36 22.1806 44.4 22.1032 52.6452 24.9677C58.1807 26.9032 61.3936 29.6516 61.6645 29.5355C62.0903 29.3419 58.4516 23.5355 51.8323 21.058C43.8194 18.0387 35.2258 19.6258 28.9549 24.5419C28.2581 25.0838 28.529 25.4322 29.342 25.0838Z" fill="white"/>
<path d="M161.381 37.2C161.381 39.0581 159.871 40.5678 158.013 40.5678C156.155 40.5678 154.645 39.0581 154.645 37.2C154.645 35.342 156.155 33.8323 158.013 33.8323C159.871 33.8323 161.381 35.342 161.381 37.2Z" fill="white"/>
<g opacity="0.6">
<path d="M326.504 59.2995C325.239 59.2995 324.187 59.0231 323.346 58.4703C322.513 57.9175 321.926 57.1451 321.586 56.1531C321.245 55.161 321.18 54.0024 321.392 52.6772C321.605 51.3899 322.021 50.2616 322.642 49.2923C323.271 48.3154 324.054 47.5544 324.993 47.0091C325.94 46.4563 326.992 46.1799 328.151 46.1799C328.886 46.1799 329.578 46.3011 330.23 46.5434C330.881 46.7857 331.441 47.1644 331.911 47.6793C332.38 48.1942 332.71 48.8568 332.899 49.6671C333.096 50.4774 333.096 51.458 332.899 52.6091L332.763 53.4383H322.665L322.971 51.5868H331.809L330.548 52.1547C330.684 51.3672 330.688 50.6818 330.559 50.0988C330.43 49.5081 330.165 49.05 329.764 48.7243C329.37 48.3911 328.825 48.2245 328.128 48.2245C327.401 48.2245 326.743 48.4025 326.152 48.7584C325.569 49.1067 325.084 49.5649 324.698 50.1328C324.319 50.7008 324.073 51.3179 323.96 51.9843L323.755 53.2452C323.619 54.1085 323.642 54.8392 323.823 55.4374C324.005 56.0357 324.331 56.49 324.8 56.8005C325.277 57.111 325.875 57.2662 326.595 57.2662C327.087 57.2662 327.541 57.1943 327.958 57.0504C328.382 56.899 328.757 56.6869 329.082 56.4143C329.416 56.1341 329.692 55.7934 329.912 55.392L332.195 55.9259C331.892 56.6074 331.468 57.2019 330.923 57.7092C330.377 58.209 329.73 58.599 328.98 58.8792C328.238 59.1594 327.413 59.2995 326.504 59.2995Z" fill="white"/>
<path d="M321.404 46.3389L321.075 48.3267H314.146L314.475 46.3389H321.404ZM316.826 43.3174H319.303L317.292 55.3124C317.216 55.7819 317.228 56.1416 317.326 56.3915C317.432 56.6338 317.595 56.7966 317.815 56.8799C318.034 56.9557 318.28 56.9935 318.553 56.9935C318.757 57.0011 318.932 56.9935 319.076 56.9708C319.227 56.9405 319.344 56.9178 319.428 56.9026L319.564 58.9472C319.397 59.0003 319.174 59.057 318.894 59.1176C318.614 59.1782 318.277 59.2047 317.883 59.1971C317.232 59.2123 316.645 59.0987 316.122 58.8564C315.6 58.6141 315.21 58.2392 314.952 57.7318C314.695 57.2169 314.63 56.577 314.759 55.8122L316.826 43.3174Z" fill="white"/>
<path d="M309.409 53.7903L310.658 46.3389H313.123L311.011 59.0381H308.591L308.955 56.8345H308.818C308.425 57.5085 307.868 58.0726 307.149 58.527C306.429 58.9813 305.589 59.2047 304.627 59.1972C303.817 59.1972 303.128 59.0192 302.56 58.6633C301.992 58.3074 301.587 57.7735 301.344 57.0617C301.102 56.3499 301.072 55.4676 301.253 54.4151L302.605 46.3389H305.081L303.798 54.1311C303.654 54.9868 303.779 55.6721 304.173 56.187C304.574 56.702 305.153 56.9557 305.91 56.9481C306.372 56.9481 306.849 56.8345 307.342 56.6073C307.841 56.3801 308.281 56.0318 308.659 55.5623C309.046 55.0928 309.295 54.5021 309.409 53.7903Z" fill="white"/>
<path d="M286.294 63.7862L289.224 46.339H291.632L291.292 48.4063H291.485C291.682 48.1412 291.939 47.8345 292.257 47.4862C292.583 47.1379 293.011 46.835 293.541 46.5775C294.071 46.3125 294.73 46.1799 295.517 46.1799C296.539 46.1799 297.407 46.4374 298.118 46.9523C298.83 47.4673 299.334 48.2132 299.629 49.19C299.932 50.1669 299.97 51.3445 299.743 52.7227C299.515 54.0857 299.091 55.2595 298.47 56.2439C297.857 57.2208 297.107 57.9705 296.221 58.493C295.335 59.0155 294.377 59.2805 293.348 59.2881C292.583 59.2805 291.977 59.148 291.53 58.8906C291.091 58.6331 290.762 58.3302 290.542 57.9818C290.322 57.6335 290.156 57.3268 290.042 57.0618H289.906L288.781 63.7862H286.294ZM293.166 57.1867C293.9 57.1791 294.544 56.9823 295.097 56.5961C295.657 56.2023 296.119 55.6684 296.483 54.9944C296.854 54.3129 297.111 53.5481 297.255 52.6999C297.384 51.8594 297.376 51.1059 297.232 50.4395C297.096 49.7731 296.816 49.2468 296.392 48.8606C295.968 48.4744 295.381 48.2813 294.631 48.2813C293.912 48.2813 293.272 48.4669 292.711 48.8379C292.159 49.2014 291.701 49.7163 291.337 50.3827C290.981 51.0415 290.731 51.814 290.587 52.6999C290.443 53.5859 290.443 54.3659 290.587 55.0399C290.731 55.7138 291.019 56.2401 291.451 56.6188C291.882 56.9898 292.454 57.1791 293.166 57.1867Z" fill="white"/>
<path d="M267.472 59.0382L269.585 46.339H271.947L271.607 48.429H271.777C272.156 47.7247 272.678 47.1757 273.344 46.782C274.011 46.3806 274.764 46.1799 275.605 46.1799C276.438 46.1799 277.112 46.3806 277.627 46.782C278.142 47.1757 278.475 47.7247 278.626 48.429H278.763C279.179 47.7399 279.751 47.1947 280.478 46.7933C281.212 46.3844 282.034 46.1799 282.943 46.1799C284.086 46.1799 284.965 46.5434 285.578 47.2704C286.191 47.9974 286.381 49.084 286.146 50.5304L284.715 59.0382H282.239L283.636 50.7576C283.772 49.8943 283.636 49.2733 283.227 48.8947C282.825 48.5161 282.299 48.323 281.648 48.3154C280.845 48.323 280.179 48.5691 279.649 49.0537C279.126 49.5384 278.801 50.1669 278.672 50.9393L277.32 59.0382H274.867L276.275 50.5985C276.381 49.9094 276.256 49.3604 275.9 48.9515C275.544 48.535 275.022 48.323 274.333 48.3154C273.863 48.3154 273.409 48.4404 272.97 48.6903C272.53 48.9401 272.156 49.2809 271.845 49.7126C271.535 50.1442 271.334 50.644 271.243 51.2119L269.948 59.0382H267.472Z" fill="white"/>
<path d="M259.839 59.2995C258.627 59.2919 257.616 59.0117 256.806 58.4589C256.003 57.9061 255.435 57.1337 255.102 56.1417C254.776 55.1421 254.72 53.9797 254.932 52.6545C255.144 51.352 255.568 50.2161 256.204 49.2468C256.84 48.2775 257.639 47.5241 258.601 46.9864C259.562 46.4488 260.63 46.1799 261.804 46.1799C263.015 46.1799 264.022 46.4601 264.825 47.0205C265.628 47.5733 266.196 48.3495 266.529 49.3491C266.862 50.3487 266.919 51.5148 266.699 52.8476C266.495 54.1425 266.071 55.2746 265.427 56.2439C264.791 57.2057 263.992 57.9553 263.03 58.493C262.076 59.0231 261.012 59.2919 259.839 59.2995ZM259.975 57.2322C260.77 57.2246 261.463 57.0125 262.054 56.5961C262.644 56.1796 263.125 55.6268 263.496 54.9377C263.875 54.241 264.129 53.4761 264.257 52.6432C264.394 51.848 264.394 51.1173 264.257 50.4509C264.129 49.7845 263.852 49.2506 263.428 48.8493C263.004 48.4404 262.413 48.2397 261.656 48.2473C260.869 48.2397 260.176 48.4479 259.577 48.872C258.987 49.2961 258.502 49.8564 258.123 50.5531C257.752 51.2498 257.502 52.0146 257.374 52.8476C257.237 53.6352 257.234 54.3621 257.362 55.0285C257.491 55.6949 257.768 56.2288 258.192 56.6301C258.623 57.0239 259.218 57.2246 259.975 57.2322Z" fill="white"/>
<path d="M245.674 59.2654C244.182 59.2654 242.91 58.9095 241.857 58.1976C240.805 57.4858 240.051 56.4711 239.597 55.1534C239.143 53.8282 239.067 52.2531 239.37 50.4281C239.673 48.641 240.252 47.1113 241.108 45.8391C241.963 44.5669 243.008 43.5901 244.243 42.9085C245.485 42.227 246.825 41.8862 248.264 41.8862C249.172 41.8862 250.002 42.015 250.751 42.2724C251.501 42.5299 252.149 42.9047 252.694 43.397C253.247 43.8892 253.671 44.4912 253.966 45.203C254.261 45.9149 254.409 46.7213 254.409 47.6225H251.887C251.872 47.0697 251.766 46.585 251.569 46.1685C251.38 45.7445 251.119 45.3886 250.785 45.1008C250.452 44.813 250.062 44.5934 249.615 44.442C249.176 44.2905 248.699 44.2148 248.184 44.2148C247.185 44.2148 246.246 44.4685 245.367 44.9759C244.489 45.4832 243.739 46.2215 243.118 47.1908C242.505 48.1601 242.085 49.3377 241.857 50.7235C241.63 52.079 241.657 53.2186 241.937 54.1425C242.217 55.0664 242.69 55.763 243.357 56.2325C244.031 56.702 244.841 56.9368 245.788 56.9368C246.34 56.9368 246.878 56.8649 247.4 56.721C247.923 56.5771 248.408 56.3613 248.854 56.0735C249.309 55.7858 249.706 55.4336 250.047 55.0171C250.395 54.6006 250.672 54.1236 250.876 53.5859H253.443C253.163 54.4265 252.773 55.1951 252.273 55.8918C251.774 56.5809 251.183 57.1791 250.501 57.6865C249.82 58.1863 249.07 58.5763 248.252 58.8564C247.442 59.1291 246.583 59.2654 245.674 59.2654Z" fill="white"/>
<path d="M226.023 59.2995C224.758 59.2995 223.706 59.0231 222.865 58.4703C222.032 57.9175 221.445 57.1451 221.105 56.1531C220.764 55.161 220.7 54.0024 220.912 52.6772C221.124 51.3899 221.54 50.2616 222.161 49.2923C222.79 48.3154 223.573 47.5544 224.512 47.0091C225.459 46.4563 226.511 46.1799 227.67 46.1799C228.405 46.1799 229.098 46.3011 229.749 46.5434C230.4 46.7857 230.96 47.1644 231.43 47.6793C231.899 48.1942 232.229 48.8568 232.418 49.6671C232.615 50.4774 232.615 51.458 232.418 52.6091L232.282 53.4383H222.184L222.49 51.5868H231.328L230.067 52.1547C230.203 51.3672 230.207 50.6818 230.078 50.0988C229.949 49.5081 229.684 49.05 229.283 48.7243C228.889 48.3911 228.344 48.2245 227.647 48.2245C226.92 48.2245 226.262 48.4025 225.671 48.7584C225.088 49.1067 224.603 49.5649 224.217 50.1328C223.838 50.7008 223.592 51.3179 223.479 51.9843L223.274 53.2452C223.138 54.1085 223.161 54.8392 223.342 55.4374C223.524 56.0357 223.85 56.49 224.319 56.8005C224.796 57.111 225.395 57.2662 226.114 57.2662C226.606 57.2662 227.061 57.1943 227.477 57.0504C227.901 56.899 228.276 56.6869 228.602 56.4143C228.935 56.1341 229.211 55.7934 229.431 55.392L231.714 55.9259C231.411 56.6074 230.987 57.2019 230.442 57.7092C229.896 58.209 229.249 58.599 228.499 58.8792C227.757 59.1594 226.932 59.2995 226.023 59.2995Z" fill="white"/>
<path d="M211.575 64.0589C210.552 64.0589 209.7 63.9263 209.019 63.6613C208.337 63.4038 207.803 63.0555 207.417 62.6163C207.031 62.1771 206.766 61.7 206.622 61.1851L208.905 60.3104C209.011 60.5527 209.163 60.8102 209.36 61.0828C209.556 61.3554 209.852 61.5864 210.246 61.7757C210.639 61.965 211.185 62.0597 211.881 62.0597C212.813 62.0673 213.627 61.8439 214.323 61.3895C215.028 60.9352 215.459 60.212 215.618 59.22L216.016 56.7324H215.846C215.664 56.9974 215.406 57.2965 215.073 57.6297C214.74 57.9629 214.312 58.2507 213.79 58.493C213.275 58.7277 212.627 58.8451 211.847 58.8451C210.848 58.8451 209.984 58.6104 209.257 58.1409C208.53 57.6714 208.012 56.9747 207.701 56.0508C207.391 55.127 207.345 53.9911 207.565 52.6432C207.784 51.2952 208.205 50.1404 208.826 49.1787C209.447 48.2094 210.2 47.4673 211.086 46.9523C211.98 46.4374 212.938 46.1799 213.96 46.1799C214.747 46.1799 215.361 46.3125 215.8 46.5775C216.239 46.835 216.565 47.1379 216.777 47.4862C216.997 47.8345 217.159 48.1412 217.265 48.4063H217.447L217.777 46.339H220.196L218.038 59.3222C217.864 60.4127 217.466 61.3062 216.845 62.0029C216.224 62.6996 215.456 63.2145 214.539 63.5477C213.631 63.8885 212.642 64.0589 211.575 64.0589ZM212.688 56.7892C213.392 56.7892 214.021 56.6226 214.573 56.2894C215.134 55.9562 215.596 55.4791 215.959 54.8581C216.33 54.2296 216.591 53.4799 216.743 52.6091C216.879 51.7534 216.868 51.0037 216.709 50.36C216.55 49.7088 216.247 49.2014 215.8 48.8379C215.361 48.4669 214.785 48.2813 214.074 48.2813C213.331 48.2813 212.684 48.4744 212.131 48.8606C211.578 49.2393 211.128 49.758 210.779 50.4168C210.439 51.0681 210.2 51.7988 210.064 52.6091C209.935 53.4345 209.939 54.1652 210.075 54.8013C210.211 55.4299 210.495 55.9183 210.927 56.2666C211.366 56.615 211.953 56.7892 212.688 56.7892Z" fill="white"/>
<path d="M198.387 59.288C197.357 59.2804 196.486 59.0153 195.775 58.4928C195.07 57.9703 194.571 57.2206 194.275 56.2438C193.98 55.2593 193.938 54.0856 194.15 52.7225C194.385 51.3443 194.813 50.1668 195.434 49.1899C196.062 48.213 196.82 47.4671 197.706 46.9522C198.599 46.4372 199.557 46.1798 200.579 46.1798C201.367 46.1798 201.977 46.3123 202.408 46.5773C202.847 46.8348 203.173 47.1377 203.385 47.486C203.597 47.8344 203.752 48.1411 203.851 48.4061H203.998L205.043 42.1133H207.508L204.714 59.0381H202.306L202.624 57.0616H202.42C202.23 57.3267 201.965 57.6333 201.624 57.9817C201.291 58.33 200.86 58.6329 200.329 58.8904C199.807 59.1479 199.16 59.2804 198.387 59.288ZM199.228 57.1866C199.94 57.179 200.576 56.9897 201.136 56.6186C201.696 56.24 202.166 55.7137 202.544 55.0397C202.931 54.3658 203.196 53.5858 203.34 52.6998C203.491 51.8138 203.487 51.0414 203.328 50.3826C203.177 49.7162 202.878 49.2012 202.431 48.8378C201.992 48.4667 201.412 48.2812 200.693 48.2812C199.951 48.2812 199.303 48.4743 198.751 48.8605C198.198 49.2467 197.747 49.773 197.399 50.4394C197.051 51.1058 196.808 51.8592 196.672 52.6998C196.528 53.5479 196.52 54.3128 196.649 54.9943C196.786 55.6683 197.066 56.2021 197.49 56.5959C197.914 56.9821 198.493 57.179 199.228 57.1866Z" fill="white"/>
<path d="M180.826 59.0381L183.62 42.1133H194.241L193.877 44.3056H185.812L184.961 49.4739H192.457L192.094 51.6661H184.597L183.734 56.8458H191.89L191.526 59.0381H180.826Z" fill="white"/>
</g>
<path d="M174.696 29.116L166.523 66.405" stroke="white"/>
</svg>
